<?xml version="1.0" encoding="UTF-8" standalone="no"?>
<svg
   xmlns:dc="http://purl.org/dc/elements/1.1/"
   xmlns:cc="http://creativecommons.org/ns#"
   xmlns:rdf="http://www.w3.org/1999/02/22-rdf-syntax-ns#"
   xmlns:svg="http://www.w3.org/2000/svg"
   xmlns="http://www.w3.org/2000/svg"
   xmlns:sodipodi="http://sodipodi.sourceforge.net/DTD/sodipodi-0.dtd"
   xmlns:inkscape="http://www.inkscape.org/namespaces/inkscape"
   width="900.33374"
   height="263.64017"
   id="svg3228"
   version="1.1"
   inkscape:version="0.48.4 r9939"
   sodipodi:docname="mustache.svg"
   inkscape:export-filename="C:\Users\acer\Desktop\foxCam\foxCam\images\stamps\mustache.png"
   inkscape:export-xdpi="150"
   inkscape:export-ydpi="150">
  <metadata
     id="metadata3239">
    <rdf:RDF>
      <cc:Work
         rdf:about="">
        <dc:format>image/svg+xml</dc:format>
        <dc:type
           rdf:resource="http://purl.org/dc/dcmitype/StillImage" />
        <dc:title></dc:title>
      </cc:Work>
    </rdf:RDF>
  </metadata>
  <defs
     id="defs3237" />
  <sodipodi:namedview
     pagecolor="#ffffff"
     bordercolor="#666666"
     borderopacity="1"
     objecttolerance="10"
     gridtolerance="10"
     guidetolerance="10"
     inkscape:pageopacity="0"
     inkscape:pageshadow="2"
     inkscape:window-width="640"
     inkscape:window-height="480"
     id="namedview3235"
     showgrid="false"
     fit-margin-top="0"
     fit-margin-left="0"
     fit-margin-right="0"
     fit-margin-bottom="0"
     inkscape:zoom="0.31082529"
     inkscape:cx="446.33373"
     inkscape:cy="127.83399"
     inkscape:window-x="0"
     inkscape:window-y="0"
     inkscape:window-maximized="0"
     inkscape:current-layer="svg3228" />
  <g
     id="g3230"
     transform="translate(-20.166273,-175.19382)">
    <title
       id="title3232">Layer 1</title>
    <path
       id="svg_2"
       d="m 808.12531,211.18573 -1.30085,0 0,1.52107 -1.3009,0 0,0 0,1.52111 0,0 0,0 -1.30078,0 0,0 0,1.52108 -1.3009,0 0,0 0,1.52109 -2.60175,0 -1.30084,0 0,-1.52109 1.30084,-1.52108 0,-1.52111 0,-1.52107 1.30084,0 0,0 0,-1.52107 1.3009,0 0,0 0,-1.52106 0,0 0,0 1.30091,-1.5211 1.30078,-1.52109 0,0 0,0 0,-1.52107 q 0,0 3.90271,-3.04218 2.60168,-4.56323 13.0086,-10.64757 10.40699,-6.08433 22.11481,-6.08433 13.00867,0 20.81384,4.56325 9.10614,4.56326 19.51307,13.68974 9.10608,9.12648 18.21216,22.81622 9.10607,13.68975 13.00872,28.90061 Q 920,270.50793 920,287.23981 q 0,18.25305 -3.90253,33.46386 -3.90265,16.73188 -14.30957,33.46381 -7.80523,16.7319 -18.21222,27.37949 -10.40692,10.64755 -27.31829,21.29516 -16.91114,12.16858 -39.02594,18.25293 -22.11481,9.12656 -48.13221,12.1687 -24.71637,3.04218 -57.23822,0 -33.82244,0 -70.24688,-9.12652 -36.42432,-9.12653 -67.64508,-21.29511 -31.22089,-12.1687 -54.6366,-27.37948 -22.11469,-15.21088 -33.82251,-27.37949 -13.00867,-12.1687 -15.61041,-13.68976 -2.60175,-1.52105 -7.80524,3.04215 -3.90262,4.56323 -20.81391,19.77411 -16.91125,15.21078 -40.32687,27.37948 -23.41565,12.16861 -55.93738,24.33731 -31.22082,12.16861 -70.24688,19.77402 -39.02607,7.60547 -65.0434,9.1265 -24.71654,1.52105 -36.42436,-1.52103 -11.70778,0 -36.4243,-7.60547 -26.01738,-7.60541 -44.229533,-16.73193 -16.911293,-9.12641 -28.61911,-18.25296 -11.707821,-12.16861 -20.813889,-25.85837 -10.406952,-15.21082 -15.61043,-33.46381 -5.20347,-18.25296 -6.504341,-38.02707 -1.300871,-18.25299 1.300871,-30.42163 2.601738,-10.64757 7.805208,-25.85841 7.805216,-15.21082 11.707819,-19.77405 5.203484,-6.08434 5.203484,-7.60544 0,-1.52107 2.601719,-3.04214 2.601738,-1.52106 14.309559,-9.1265 11.707817,-7.60539 26.017365,-7.60539 15.610418,0 26.017378,4.56322 l 10.40694,4.56326 0,1.52109 0,0 1.30087,0 0,1.52107 0,0 1.30087,0 0,0 0,0 1.30087,1.52109 1.30086,1.5211 0,0 0,0 1.30087,0 0,0 0,1.52106 1.30087,0 0,1.52107 0,1.52107 -2.60174,0 -3.9026,-1.52107 -1.30087,0 -1.30086,0 0,-1.52107 -1.30086,0 0,0 0,-1.52106 -5.20347,0 q -3.90261,-3.04219 -14.30957,-1.5211 -10.406947,1.5211 -18.212146,7.60541 -6.504341,7.60543 -11.707825,18.25299 -5.203484,10.64758 -5.203484,30.42163 0,21.29513 5.203484,28.90057 3.902611,7.60541 10.406937,12.16867 6.504349,4.56321 18.212164,4.56321 13.00869,0 31.22084,-9.12647 19.51302,-9.12649 49.43302,-28.90057 31.22082,-19.77407 61.14079,-41.0692 31.2209,-21.29514 53.33565,-33.46381 23.41562,-12.16867 39.026,-15.21081 16.91131,-6.08435 37.72522,-4.56327 20.8139,1.52108 40.32693,7.60541 19.51303,9.12651 33.8226,19.77408 15.61039,10.64757 16.91126,12.16865 1.30087,1.52109 15.61041,-10.64758 14.30957,-12.16864 33.82254,-18.25299 19.51306,-9.12649 28.61914,-9.12649 9.10608,-3.04216 32.52173,-1.52108 23.41559,1.52108 41.62775,6.08434 16.91132,4.56323 41.62787,19.77406 24.71643,15.21083 71.54773,51.71683 46.83124,36.50593 63.74255,42.59025 15.61041,9.12653 29.91998,9.12653 14.30964,0 24.71644,-6.08435 10.40698,-6.08432 15.61047,-12.1687 5.20355,-7.60538 5.20355,-25.85834 0,-18.25299 -5.20355,-28.90057 -5.20349,-10.64755 -11.70776,-18.25299 -6.50434,-6.08431 -11.70783,-9.1265 -6.50433,-3.04216 -15.61041,-3.04216 -7.80524,0 -13.00873,4.56325 -3.90253,4.56323 -5.20349,4.56323 z"
       inkscape:connector-curvature="0"
       style="fill:#000000;fill-rule:evenodd;stroke:#010101;stroke-width:1px" />
  </g>
</svg>
