<?xml version="1.0" encoding="UTF-8" standalone="no"?>
<!-- Created with Inkscape (http://www.inkscape.org/) -->
<svg xmlns:dc="http://purl.org/dc/elements/1.1/" xmlns:cc="http://creativecommons.org/ns#" xmlns:rdf="http://www.w3.org/1999/02/22-rdf-syntax-ns#" xmlns:svg="http://www.w3.org/2000/svg" xmlns="http://www.w3.org/2000/svg" xmlns:sodipodi="http://sodipodi.sourceforge.net/DTD/sodipodi-0.dtd" xmlns:inkscape="http://www.inkscape.org/namespaces/inkscape" width="520" height="320" id="svg10726" version="1.1" inkscape:version="0.48.2 r9819" sodipodi:docname="ROC國旗.svg">
  <defs id="defs10728"/>
  <sodipodi:namedview id="base" pagecolor="#ffffff" bordercolor="#666666" borderopacity="1.0" inkscape:pageopacity="0.0" inkscape:pageshadow="2" inkscape:zoom="1" inkscape:cx="162.68653" inkscape:cy="222.06131" inkscape:document-units="px" inkscape:current-layer="layer1" showgrid="true" inkscape:window-width="1366" inkscape:window-height="744" inkscape:window-x="0" inkscape:window-y="24" inkscape:window-maximized="1" fit-margin-top="0" fit-margin-left="0" fit-margin-right="0" fit-margin-bottom="0">
    <inkscape:grid type="xygrid" id="grid2988" empspacing="5" visible="true" enabled="true" snapvisiblegridlinesonly="true"/>
  </sodipodi:namedview>
  <metadata id="metadata10731">
    <rdf:RDF>
      <cc:Work rdf:about="">
        <dc:format>image/svg+xml</dc:format>
        <dc:type rdf:resource="http://purl.org/dc/dcmitype/StillImage"/>
        <dc:title/>
      </cc:Work>
    </rdf:RDF>
  </metadata>
  <g inkscape:label="Layer 1" inkscape:groupmode="layer" id="layer1" transform="translate(501.42856,-288.07648)">
    <rect style="opacity:0.98999999;fill:#ff0000;fill-opacity:1;stroke:none" id="rect2986" width="520" height="320" x="-501.42856" y="288.07648" rx="3.4474525" ry="3.4474525"/>
    <rect style="opacity:0.98999999;fill:#000080;fill-opacity:1;stroke:none" id="rect2990" width="280" height="160" x="-501.42856" y="288.07648" rx="3.4474525" ry="3.4474525"/>
    <g id="g3003" transform="matrix(0.93388937,0.3575621,-0.3575621,0.93388937,107.71593,153.56692)">
      <path transform="matrix(0.50212623,0,0,0.50212623,-760.11755,362.6135)" inkscape:transform-center-y="-1.985957" inkscape:transform-center-x="10.177907" d="M 871.80805,73.687367 823.45128,51.282375 829.98011,104.176 799.30442,60.594319 778.51175,109.66595 773.73665,56.585269 731.19385,88.686215 753.59884,40.329446 700.70522,46.85828 744.2869,16.182586 695.21526,-4.6100875 748.29595,-9.3851795 716.195,-51.927981 l 48.35677,22.404992 -6.52883,-52.89362 30.67569,43.581676 20.79268,-49.071636 4.77509,53.080686 42.5428,-32.100946 -22.40499,48.356769 52.89362,-6.528834 -43.58168,30.6756937 49.07164,20.7926743 -53.08069,4.775092 z" inkscape:randomized="0" inkscape:rounded="0" inkscape:flatsided="false" sodipodi:arg2="0.94093269" sodipodi:arg1="0.6791333" sodipodi:r2="49.996647" sodipodi:r1="99.993294" sodipodi:cy="10.879693" sodipodi:cx="794.00153" sodipodi:sides="12" id="path8131" style="fill:#ffffff;fill-opacity:1;stroke-width:4;stroke-miterlimit:4;stroke-dasharray:none" sodipodi:type="star"/>
      <path transform="matrix(0.43790992,0,0,0.42331294,-749.77009,322.99478)" d="m 941.17771,106.49734 c 0,31.06363 -24.34265,56.24568 -54.37083,56.24568 -30.02817,0 -54.37082,-25.18205 -54.37082,-56.24568 0,-31.063633 24.34265,-56.245681 54.37082,-56.245681 30.02818,0 54.37083,25.182048 54.37083,56.245681 z" sodipodi:ry="56.245678" sodipodi:rx="54.370823" sodipodi:cy="106.49734" sodipodi:cx="886.80688" id="path8135" style="fill:none;stroke:#000080;stroke-width:4;stroke-miterlimit:4;stroke-opacity:1;stroke-dasharray:none" sodipodi:type="arc"/>
    </g>
  </g>
</svg>